<svg width="1440" height="650" viewBox="0 0 1440 650" fill="none" xmlns="http://www.w3.org/2000/svg">
<g filter="url(#filter0_f_1_811)">
<path d="M1312.74 441.539C1357.87 415.008 1376.32 385.958 1366.38 357.09C1356.44 328.221 1318.43 300.471 1255.89 276.418C1193.34 252.365 1108.29 232.79 1008.64 219.513C908.985 206.236 797.966 199.687 685.899 200.476C573.832 201.265 464.355 209.366 367.644 224.025C270.934 238.684 190.128 259.427 132.739 284.324C75.3494 309.221 43.2388 337.465 39.3917 366.431C35.5446 395.397 60.0858 424.144 110.734 450H703.5L1312.74 441.539Z" fill="url(#paint0_radial_1_811)"/>
<path d="M1312.74 441.539C1357.87 415.008 1376.32 385.958 1366.38 357.09C1356.44 328.221 1318.43 300.471 1255.89 276.418C1193.34 252.365 1108.29 232.79 1008.64 219.513C908.985 206.236 797.966 199.687 685.899 200.476C573.832 201.265 464.355 209.366 367.644 224.025C270.934 238.684 190.128 259.427 132.739 284.324C75.3494 309.221 43.2388 337.465 39.3917 366.431C35.5446 395.397 60.0858 424.144 110.734 450H703.5L1312.74 441.539Z" fill="url(#paint1_linear_1_811)" fill-opacity="0.4"/>
</g>
<defs>
<filter id="filter0_f_1_811" x="-161" y="0.412292" width="1730" height="649.588" filterUnits="userSpaceOnUse" color-interpolation-filters="sRGB">
<feFlood flood-opacity="0" result="BackgroundImageFix"/>
<feBlend mode="normal" in="SourceGraphic" in2="BackgroundImageFix" result="shape"/>
<feGaussianBlur stdDeviation="100" result="effect1_foregroundBlur_1_811"/>
</filter>
<radialGradient id="paint0_radial_1_811" cx="0" cy="0" r="1" gradientUnits="userSpaceOnUse" gradientTransform="translate(608 306.682) rotate(67.9965) scale(256.23 925.208)">
<stop stop-color="#1A52BE"/>
<stop offset="1" stop-color="#24214B" stop-opacity="0"/>
</radialGradient>
<linearGradient id="paint1_linear_1_811" x1="891.5" y1="372.693" x2="402.53" y2="349.283" gradientUnits="userSpaceOnUse">
<stop stop-color="#75F7FF"/>
<stop offset="0.459917" stop-color="white" stop-opacity="0.540083"/>
<stop offset="1" stop-opacity="0"/>
</linearGradient>
</defs>
</svg>
